<svg width="206" height="39" viewBox="0 0 206 39" fill="none" xmlns="http://www.w3.org/2000/svg">
<path fill-rule="evenodd" clip-rule="evenodd" d="M29.7355 0.653269C29.7329 0.547301 29.7045 0.443569 29.6528 0.351018C29.6011 0.258468 29.5277 0.179877 29.4389 0.122024C29.3501 0.0641713 29.2485 0.028794 29.143 0.0189421C29.0374 0.00909013 28.9311 0.02506 28.8331 0.0654743L19.8433 3.91035C19.7267 3.96024 19.6273 4.04313 19.5573 4.14879C19.4873 4.25446 19.4497 4.37829 19.4491 4.50506V5.88811C19.4491 5.97477 19.4706 6.06009 19.5116 6.13644C19.5526 6.2128 19.6119 6.27783 19.6841 6.32575C19.7563 6.37367 19.8393 6.40298 19.9255 6.41108C20.0118 6.41918 20.0988 6.40581 20.1787 6.37217L29.2757 2.49618C29.4188 2.4355 29.5407 2.33387 29.6263 2.20407C29.7118 2.07426 29.757 1.92206 29.7563 1.76662L29.7355 0.653269Z" fill="#1DA1F2"/>
<path fill-rule="evenodd" clip-rule="evenodd" d="M17.7894 3.91057L8.76848 0.0587802C8.6894 0.0216927 8.6034 0.00166474 8.51607 0C8.39221 0.000622357 8.27152 0.0392422 8.17031 0.110644C8.07913 0.166896 8.00411 0.245856 7.9526 0.339798C7.90108 0.43374 7.87482 0.539447 7.87641 0.646576V1.68386C7.87623 1.85471 7.92629 2.02184 8.02035 2.16446C8.11441 2.30709 8.24833 2.41891 8.40544 2.48603L17.4955 6.36894C17.5713 6.40003 17.6536 6.41205 17.7352 6.40396C17.8168 6.39587 17.8951 6.36791 17.9633 6.32253C18.0316 6.27715 18.0876 6.21573 18.1266 6.14365C18.1656 6.07157 18.1864 5.99103 18.187 5.90907V4.50528C18.1866 4.37802 18.1487 4.25371 18.078 4.14792C18.0072 4.04213 17.9069 3.95957 17.7894 3.91057Z" fill="#1DA1F2"/>
<path fill-rule="evenodd" clip-rule="evenodd" d="M19.8507 7.92484C19.7349 7.97307 19.6362 8.0548 19.5672 8.15953C19.4982 8.26426 19.462 8.38722 19.4634 8.51263V10.034C19.4661 10.088 19.4815 10.1407 19.5082 10.1877C19.535 10.2347 19.5724 10.2748 19.6175 10.3047C19.6625 10.3347 19.714 10.3536 19.7677 10.36C19.8214 10.3664 19.8759 10.3602 19.9267 10.3417L29.7533 6.13725L30.4033 5.8641L31.0499 5.58749L33.0553 4.71271C33.2074 4.64779 33.3369 4.53924 33.4274 4.40077C33.5179 4.26231 33.5652 4.10014 33.5636 3.93475V3.03577C33.565 2.92984 33.5397 2.82527 33.4902 2.73163C33.4407 2.63799 33.3684 2.55829 33.2801 2.49983C33.1777 2.43086 33.0577 2.39249 32.9343 2.38919C32.8446 2.38931 32.756 2.40939 32.675 2.44797L31.043 3.13949L30.3964 3.41265L29.7498 3.68926L19.8507 7.92484Z" fill="#1DA1F2"/>
<path fill-rule="evenodd" clip-rule="evenodd" d="M17.7888 7.92496L7.86548 3.67554L7.2189 3.40585L6.57233 3.12578L4.93342 2.43426C4.85312 2.40184 4.76759 2.38427 4.68101 2.38239C4.59672 2.38148 4.51308 2.39724 4.4349 2.42876C4.35672 2.46028 4.28554 2.50694 4.22546 2.56607C4.16537 2.62519 4.11756 2.6956 4.08478 2.77326C4.052 2.85093 4.03489 2.9343 4.03444 3.01859V4.0213C4.03358 4.15724 4.0728 4.29042 4.14722 4.40419C4.22163 4.51796 4.32792 4.60727 4.45281 4.66096L6.56196 5.55995L7.20853 5.84001L7.85856 6.11662L17.6367 10.2934C17.6952 10.318 17.7588 10.3281 17.8221 10.3228C17.8854 10.3175 17.9464 10.297 18 10.263C18.0537 10.2291 18.0983 10.1827 18.1302 10.1278C18.162 10.0729 18.1802 10.0111 18.183 9.94766V8.51621C18.1841 8.38952 18.147 8.26544 18.0768 8.16003C18.0065 8.05461 17.9062 7.97272 17.7888 7.92496Z" fill="#1DA1F2"/>
<path fill-rule="evenodd" clip-rule="evenodd" d="M37.5326 5.19334C37.5345 5.08608 37.5087 4.98013 37.4579 4.88568C37.407 4.79122 37.3327 4.71142 37.2421 4.65395C37.1402 4.58409 37.02 4.54562 36.8964 4.5433C36.809 4.54497 36.723 4.565 36.644 4.60208L34.8633 5.3593L34.2167 5.63937L33.5701 5.91598L31.053 6.9913L30.4064 7.26791L29.7564 7.54798L19.8676 11.7732C19.7505 11.8213 19.6505 11.9033 19.5803 12.0087C19.5101 12.114 19.4729 12.2379 19.4734 12.3644V18.7057C19.4753 18.6885 19.4753 18.6711 19.4734 18.6539V19.6185V20.3101V28.0932C19.4717 28.1456 19.4776 28.198 19.4907 28.2487V29.2169V29.9084V37.7295C19.4882 37.8394 19.5155 37.9478 19.5697 38.0434C19.6239 38.139 19.7029 38.2181 19.7984 38.2724C19.8902 38.3317 19.9959 38.3661 20.1051 38.3721C20.2142 38.3782 20.323 38.3557 20.4208 38.307L37.3217 29.7494C37.4278 29.6954 37.5165 29.6126 37.5777 29.5104C37.6388 29.4083 37.67 29.291 37.6674 29.1719L37.5326 5.19334Z" fill="#1DA1F2"/>
<path fill-rule="evenodd" clip-rule="evenodd" d="M17.7895 11.773L7.85575 7.52012L7.20918 7.24351L6.55914 6.97035L4.03509 5.89158L3.38851 5.61151L2.74194 5.3349L0.96818 4.57768C0.885881 4.54387 0.79783 4.52626 0.708858 4.52582C0.585749 4.5279 0.465794 4.56508 0.363096 4.633C0.273743 4.6901 0.200261 4.76885 0.149485 4.86194C0.098709 4.95503 0.0722863 5.05944 0.0726574 5.16548L3.98217e-05 29.1717C-0.00128215 29.2905 0.0303339 29.4074 0.0913658 29.5093C0.152398 29.6112 0.24046 29.6942 0.345802 29.7492L17.2466 38.3068C17.3456 38.3546 17.4549 38.3771 17.5648 38.3723C17.6746 38.3675 17.7815 38.3355 17.8759 38.2791C17.9707 38.222 18.0492 38.1414 18.1037 38.0451C18.1582 37.9488 18.1869 37.84 18.1871 37.7293V12.3642C18.1874 12.2373 18.1497 12.1131 18.0788 12.0077C18.008 11.9024 17.9072 11.8206 17.7895 11.773Z" fill="#1DA1F2"/>
<path fill-rule="evenodd" clip-rule="evenodd" d="M14.888 28.3837C14.7802 28.4471 14.6576 28.4809 14.5326 28.4816C14.4076 28.4824 14.2846 28.45 14.1761 28.3879C14.0676 28.3258 13.9775 28.236 13.9149 28.1278C13.8522 28.0196 13.8194 27.8967 13.8196 27.7717V21.4719V15.1721C13.8196 15.0474 13.8523 14.9249 13.9145 14.8168C13.9767 14.7087 14.0661 14.6189 14.174 14.5562C14.2818 14.4935 14.4041 14.4603 14.5288 14.4598C14.6535 14.4592 14.7762 14.4914 14.8845 14.5532L20.3441 17.6962L25.8037 20.8391C25.9113 20.9018 26.0006 20.9917 26.0627 21.0997C26.1248 21.2077 26.1574 21.33 26.1574 21.4546C26.1574 21.5792 26.1248 21.7015 26.0627 21.8095C26.0006 21.9175 25.9113 22.0074 25.8037 22.0701L20.351 25.2269L14.888 28.3837Z" fill="white"/>
<path d="M67.1198 10.0165H59.5485V31.289H54.8772V10.0165H47.3059V6.17871H67.1198V10.0165Z" fill="#1F3965"/>
<path d="M77.0351 20.3315C77.0351 19.7758 76.9541 19.2548 76.792 18.7686C76.6415 18.2708 76.4099 17.8366 76.0974 17.4662C75.7848 17.0957 75.3854 16.8063 74.8992 16.5979C74.4245 16.378 73.8688 16.268 73.2321 16.268C71.9934 16.268 71.0151 16.6211 70.2973 17.3273C69.5912 18.0334 69.1397 19.0349 68.9428 20.3315H77.0351ZM68.856 22.9189C68.9255 23.8335 69.0876 24.6265 69.3422 25.2979C69.5969 25.9578 69.9327 26.5077 70.3494 26.9477C70.7662 27.376 71.2582 27.7002 71.8255 27.9201C72.4043 28.1285 73.0411 28.2327 73.7357 28.2327C74.4303 28.2327 75.0265 28.1516 75.5243 27.9896C76.0337 27.8275 76.4736 27.6481 76.8441 27.4512C77.2261 27.2544 77.5561 27.075 77.8339 26.9129C78.1233 26.7508 78.4012 26.6698 78.6674 26.6698C79.0263 26.6698 79.2926 26.8029 79.4662 27.0692L80.6992 28.6321C80.2245 29.1878 79.692 29.6566 79.1016 30.0387C78.5111 30.4091 77.8918 30.7101 77.2435 30.9417C76.6067 31.1616 75.9527 31.3179 75.2812 31.4105C74.6213 31.5032 73.9788 31.5495 73.3536 31.5495C72.1149 31.5495 70.963 31.3469 69.8979 30.9417C68.8329 30.5249 67.9067 29.9171 67.1195 29.1183C66.3323 28.3079 65.7129 27.3123 65.2614 26.1315C64.8099 24.9391 64.5841 23.5614 64.5841 21.9985C64.5841 20.783 64.781 19.6426 65.1746 18.5776C65.5682 17.5009 66.1297 16.569 66.859 15.7817C67.5999 14.9829 68.4971 14.352 69.5506 13.8889C70.6157 13.4258 71.8139 13.1943 73.1453 13.1943C74.2682 13.1943 75.3043 13.3738 76.2537 13.7326C77.203 14.0915 78.0191 14.6183 78.7022 15.3129C79.3852 15.9959 79.9177 16.841 80.2998 17.8482C80.6934 18.8438 80.8902 19.9842 80.8902 21.2692C80.8902 21.9175 80.8207 22.3574 80.6818 22.589C80.5429 22.8089 80.2766 22.9189 79.883 22.9189H68.856Z" fill="#1F3965"/>
<path d="M93.521 23.683C92.2823 23.7409 91.2404 23.8508 90.3953 24.0129C89.5502 24.1634 88.8729 24.3602 88.3635 24.6033C87.8541 24.8464 87.4895 25.1301 87.2695 25.4542C87.0496 25.7784 86.9396 26.1315 86.9396 26.5135C86.9396 27.266 87.1595 27.8043 87.5995 28.1285C88.051 28.4527 88.6356 28.6147 89.3534 28.6147C90.2332 28.6147 90.9915 28.4584 91.6282 28.1459C92.2765 27.8217 92.9075 27.3355 93.521 26.6872V23.683ZM83.6923 15.9554C85.7414 14.0799 88.2072 13.1422 91.0899 13.1422C92.1318 13.1422 93.0637 13.3159 93.8857 13.6632C94.7077 13.9989 95.4023 14.4736 95.9695 15.0871C96.5368 15.6891 96.9652 16.4127 97.2546 17.2578C97.5556 18.1029 97.7061 19.0291 97.7061 20.0363V31.289H95.7612C95.356 31.289 95.0434 31.2311 94.8234 31.1153C94.6035 30.988 94.4298 30.7391 94.3025 30.3686L93.9204 29.0836C93.4689 29.4888 93.029 29.8477 92.6007 30.1602C92.1723 30.4612 91.7266 30.7159 91.2635 30.9243C90.8005 31.1327 90.3027 31.289 89.7701 31.3932C89.2492 31.5089 88.6703 31.5668 88.0336 31.5668C87.2811 31.5668 86.5865 31.4684 85.9497 31.2716C85.313 31.0632 84.7631 30.7565 84.3 30.3513C83.837 29.9461 83.4781 29.4425 83.2234 28.8405C82.9687 28.2385 82.8414 27.5381 82.8414 26.7393C82.8414 26.2878 82.9166 25.8421 83.0671 25.4021C83.2176 24.9506 83.4607 24.5223 83.7964 24.1171C84.1438 23.7119 84.5895 23.3299 85.1336 22.971C85.6777 22.6121 86.3434 22.2995 87.1306 22.0333C87.9294 21.767 88.8555 21.5528 89.909 21.3907C90.9625 21.2171 92.1665 21.1129 93.521 21.0782V20.0363C93.521 18.8438 93.2663 17.964 92.757 17.3967C92.2476 16.8179 91.5124 16.5285 90.5516 16.5285C89.8569 16.5285 89.2781 16.6095 88.815 16.7716C88.3635 16.9336 87.9641 17.1189 87.6168 17.3273C87.2695 17.5241 86.9511 17.7035 86.6617 17.8656C86.3839 18.0277 86.0713 18.1087 85.724 18.1087C85.423 18.1087 85.1683 18.0334 84.9599 17.8829C84.7515 17.7209 84.5837 17.5356 84.4563 17.3273L83.6923 15.9554Z" fill="#1F3965"/>
<path d="M114.509 17.2404C114.382 17.4025 114.255 17.5299 114.127 17.6225C114.011 17.7151 113.838 17.7614 113.606 17.7614C113.386 17.7614 113.172 17.6977 112.964 17.5704C112.755 17.4315 112.506 17.281 112.217 17.1189C111.928 16.9452 111.58 16.7947 111.175 16.6674C110.781 16.5285 110.289 16.459 109.699 16.459C108.947 16.459 108.287 16.5979 107.719 16.8758C107.152 17.142 106.677 17.5299 106.295 18.0392C105.925 18.5486 105.647 19.168 105.462 19.8973C105.277 20.6151 105.184 21.4313 105.184 22.3458C105.184 23.2951 105.282 24.1403 105.479 24.8812C105.688 25.6221 105.983 26.2473 106.365 26.7566C106.747 27.2544 107.21 27.6365 107.754 27.9027C108.298 28.1574 108.912 28.2848 109.595 28.2848C110.278 28.2848 110.828 28.2037 111.245 28.0417C111.673 27.868 112.032 27.6828 112.321 27.486C112.611 27.2776 112.86 27.0924 113.068 26.9303C113.288 26.7566 113.531 26.6698 113.797 26.6698C114.145 26.6698 114.405 26.8029 114.579 27.0692L115.812 28.6321C115.337 29.1878 114.822 29.6566 114.266 30.0387C113.71 30.4091 113.132 30.7101 112.53 30.9417C111.939 31.1616 111.326 31.3179 110.689 31.4105C110.064 31.5032 109.439 31.5495 108.813 31.5495C107.714 31.5495 106.677 31.3469 105.705 30.9417C104.733 30.5249 103.882 29.9229 103.152 29.1357C102.423 28.3485 101.844 27.3876 101.416 26.253C100.999 25.1069 100.791 23.8045 100.791 22.3458C100.791 21.0377 100.976 19.8279 101.346 18.7165C101.728 17.5935 102.284 16.6269 103.013 15.8165C103.743 14.9945 104.646 14.352 105.722 13.8889C106.799 13.4258 108.038 13.1943 109.439 13.1943C110.77 13.1943 111.933 13.4085 112.929 13.8368C113.936 14.2652 114.839 14.8787 115.638 15.6776L114.509 17.2404Z" fill="#1F3965"/>
<path d="M122.79 15.3823C123.484 14.734 124.248 14.2073 125.082 13.8021C125.916 13.3969 126.894 13.1943 128.017 13.1943C128.989 13.1943 129.852 13.3622 130.604 13.6979C131.357 14.0221 131.982 14.4851 132.48 15.0871C132.989 15.6776 133.371 16.3895 133.626 17.2231C133.892 18.045 134.025 18.9538 134.025 19.9494V31.289H129.736V19.9494C129.736 18.8612 129.487 18.0219 128.989 17.4314C128.491 16.8295 127.733 16.5285 126.714 16.5285C125.973 16.5285 125.279 16.6963 124.63 17.032C123.982 17.3678 123.369 17.8251 122.79 18.4039V31.289H118.501V5.4841H122.79V15.3823Z" fill="#1F3965"/>
<path d="M138.104 31.289V13.4722H140.727C141.282 13.4722 141.647 13.7326 141.821 14.2536L142.098 15.5734C142.411 15.2261 142.735 14.9077 143.071 14.6183C143.418 14.3288 143.783 14.0799 144.165 13.8716C144.558 13.6632 144.975 13.5011 145.415 13.3853C145.867 13.258 146.359 13.1943 146.891 13.1943C148.014 13.1943 148.935 13.5011 149.652 14.1147C150.382 14.7167 150.926 15.5213 151.285 16.5285C151.562 15.938 151.91 15.4344 152.327 15.0177C152.743 14.5893 153.201 14.242 153.698 13.9757C154.196 13.7095 154.723 13.5127 155.279 13.3853C155.846 13.258 156.413 13.1943 156.98 13.1943C157.965 13.1943 158.839 13.3448 159.603 13.6458C160.367 13.9468 161.009 14.3867 161.53 14.9656C162.051 15.5444 162.445 16.2506 162.711 17.0841C162.989 17.9177 163.128 18.8728 163.128 19.9494V31.289H158.839V19.9494C158.839 18.8149 158.59 17.964 158.092 17.3967C157.594 16.8179 156.865 16.5285 155.904 16.5285C155.464 16.5285 155.053 16.6037 154.671 16.7542C154.3 16.9047 153.97 17.1247 153.681 17.4141C153.403 17.6919 153.183 18.045 153.021 18.4734C152.859 18.9017 152.778 19.3937 152.778 19.9494V31.289H148.471V19.9494C148.471 18.757 148.228 17.8887 147.742 17.3446C147.267 16.8005 146.567 16.5285 145.641 16.5285C145.016 16.5285 144.431 16.6847 143.887 16.9973C143.354 17.2983 142.857 17.7151 142.394 18.2476V31.289H138.104Z" fill="#1F3965"/>
<path d="M171.65 13.4722V31.289H167.344V13.4722H171.65ZM172.241 8.27992C172.241 8.65038 172.166 8.99769 172.015 9.32184C171.865 9.64599 171.662 9.92963 171.407 10.1727C171.164 10.4159 170.875 10.6127 170.539 10.7632C170.203 10.9021 169.844 10.9715 169.462 10.9715C169.092 10.9715 168.739 10.9021 168.403 10.7632C168.079 10.6127 167.795 10.4159 167.552 10.1727C167.309 9.92963 167.112 9.64599 166.962 9.32184C166.823 8.99769 166.753 8.65038 166.753 8.27992C166.753 7.89788 166.823 7.539 166.962 7.20327C167.112 6.86754 167.309 6.57812 167.552 6.335C167.795 6.09189 168.079 5.90087 168.403 5.76195C168.739 5.61145 169.092 5.5362 169.462 5.5362C169.844 5.5362 170.203 5.61145 170.539 5.76195C170.875 5.90087 171.164 6.09189 171.407 6.335C171.662 6.57812 171.865 6.86754 172.015 7.20327C172.166 7.539 172.241 7.89788 172.241 8.27992Z" fill="#1F3965"/>
<path d="M180.035 15.6602C180.393 15.3013 180.77 14.9714 181.163 14.6704C181.569 14.3578 181.991 14.0973 182.431 13.8889C182.883 13.669 183.363 13.5011 183.872 13.3853C184.382 13.258 184.937 13.1943 185.539 13.1943C186.512 13.1943 187.374 13.3622 188.127 13.6979C188.879 14.0221 189.504 14.4851 190.002 15.0871C190.512 15.6776 190.894 16.3895 191.148 17.2231C191.415 18.045 191.548 18.9538 191.548 19.9494V31.289H187.259V19.9494C187.259 18.8612 187.01 18.0219 186.512 17.4314C186.014 16.8295 185.256 16.5285 184.237 16.5285C183.496 16.5285 182.801 16.6963 182.153 17.032C181.505 17.3678 180.891 17.8251 180.312 18.4039V31.289H176.023V13.4722H178.645C179.201 13.4722 179.566 13.7326 179.739 14.2536L180.035 15.6602Z" fill="#1F3965"/>
<path d="M201.329 31.5668C199.777 31.5668 198.585 31.1327 197.751 30.2644C196.929 29.3846 196.518 28.1748 196.518 26.6351V16.6847H194.695C194.463 16.6847 194.267 16.6095 194.105 16.459C193.943 16.3085 193.861 16.0827 193.861 15.7817V14.0799L196.727 13.6111L197.63 8.74878C197.688 8.51725 197.798 8.3378 197.96 8.21046C198.122 8.08311 198.33 8.01944 198.585 8.01944H200.808V13.6284H205.566V16.6847H200.808V26.3399C200.808 26.8956 200.941 27.3297 201.207 27.6423C201.485 27.9548 201.861 28.1111 202.336 28.1111C202.602 28.1111 202.822 28.0822 202.996 28.0243C203.181 27.9548 203.337 27.8854 203.464 27.8159C203.603 27.7465 203.725 27.6828 203.829 27.6249C203.933 27.5554 204.038 27.5207 204.142 27.5207C204.269 27.5207 204.373 27.5554 204.454 27.6249C204.535 27.6828 204.622 27.7754 204.715 27.9027L206 29.9866C205.375 30.5075 204.657 30.9012 203.847 31.1674C203.036 31.4337 202.197 31.5668 201.329 31.5668Z" fill="#1F3965"/>
</svg>
